<svg width="50" height="55" viewBox="0 0 50 55" fill="none" xmlns="http://www.w3.org/2000/svg">
<rect width="50" height="55" rx="10" fill="#2B8CEE"/>
<path d="M24.35 39.7643V9.56995C23.8129 9.19931 23.2232 9.00446 22.625 9C21.8133 9.00116 21.0208 9.34784 20.3515 9.99454C19.6823 10.6412 19.1675 11.5577 18.8748 12.6237C18.023 13.0879 17.3087 13.9461 16.8491 15.0575C16.3896 16.1688 16.2122 17.4672 16.346 18.7393C15.9702 19.2609 15.6709 19.8815 15.4651 20.5658C15.4168 20.7277 15.3915 20.9042 15.3501 21.0726C15.3016 21.2546 15.2609 21.4406 15.2282 21.6296C15.1164 22.4153 15.1243 23.2254 15.2512 24.0065C14.8646 24.5874 14.5574 25.2636 14.345 26.0013L14.3278 26.0596C14.2149 26.4672 14.1317 26.8898 14.0794 27.3209C14.0303 27.6868 14.0038 28.0578 14 28.4301C14.0038 28.8198 14.0314 29.2062 14.0828 29.5894C14.1381 30.0509 14.2287 30.5026 14.353 30.9366L14.3772 31.003C14.5073 31.4179 14.6681 31.8124 14.8567 32.1801C14.9779 32.4176 15.109 32.6416 15.25 32.8521C15.3336 32.974 15.4199 33.0906 15.5088 33.2018C15.6238 33.3497 15.7446 33.49 15.8711 33.6228C15.9976 33.7539 16.101 33.8495 16.2253 33.9466L16.2931 34.0114V34.0972C16.2944 35.468 16.6479 36.7919 17.2884 37.8243C17.9288 38.8567 18.813 39.528 19.7776 39.7141C20.3879 40.593 21.1881 41.1616 22.0528 41.3307C22.9174 41.4998 23.7974 41.2598 24.5547 40.6484C24.4247 40.3895 24.3533 40.0813 24.35 39.7643ZM36.9241 27.329C36.8721 26.8979 36.7893 26.4753 36.6768 26.0677L36.6573 26.0062C36.4445 25.2665 36.1365 24.5886 35.7488 24.0065C35.8782 23.2256 35.8849 22.4144 35.7684 21.6296C35.7375 21.4468 35.6991 21.2668 35.6534 21.0904C35.6143 20.9155 35.5878 20.7342 35.5383 20.5658C35.3326 19.8815 35.0333 19.2609 34.6574 18.7393C34.7911 17.4666 34.6131 16.1678 34.1529 15.0563C33.6927 13.9449 32.9776 13.087 32.1251 12.6237C31.8325 11.5577 31.3177 10.6412 30.6485 9.99454C29.9792 9.34784 29.1867 9.00116 28.375 9C27.7768 9.00446 27.1871 9.19931 26.65 9.56995V39.7643C26.6447 40.0824 26.5709 40.3907 26.4384 40.6484C27.1957 41.2598 28.0757 41.4998 28.9403 41.3307C29.805 41.1616 30.6052 40.593 31.2155 39.7141C32.1801 39.528 33.0643 38.8567 33.7047 37.8243C34.3452 36.7919 34.6987 35.468 34.7 34.0972V34.0179L34.7678 33.9531C34.8897 33.8495 35.0078 33.7415 35.122 33.6293C35.2934 33.4609 35.3681 33.3556 35.4843 33.2083C35.5732 33.096 35.6595 32.9794 35.743 32.8585C35.9397 32.565 36.1164 32.2463 36.2709 31.9065C36.4035 31.6215 36.5185 31.3225 36.6159 31.0094L36.64 30.943C36.7405 30.5976 36.8191 30.2419 36.8758 29.876C36.8904 29.7832 36.9038 29.6898 36.916 29.5959C36.969 29.2116 36.9969 28.823 37 28.4301C36.997 28.0607 36.9717 27.6923 36.9241 27.329Z" fill="white"/>
</svg>
